<svg width="211" height="241" viewBox="0 0 211 241" fill="none" xmlns="http://www.w3.org/2000/svg">
<g filter="url(#filter0_d_93_1513)">
<path fill-rule="evenodd" clip-rule="evenodd" d="M105.522 0.682617C109.968 0.682617 114.231 2.44812 117.374 5.59072C120.518 8.73333 122.283 12.9956 122.283 17.4399V85.9439L180.327 49.0108C184.079 46.6242 188.625 45.8254 192.966 46.7902C197.307 47.7549 201.087 50.4042 203.474 54.1553C205.861 57.9063 206.66 62.4517 205.695 66.7916C204.73 71.1316 202.08 74.9105 198.328 77.2971L136.748 116.476L198.328 155.654C202.08 158.041 204.73 161.82 205.695 166.16C206.66 170.5 205.861 175.045 203.474 178.796C201.087 182.547 197.307 185.197 192.966 186.161C188.625 187.126 184.079 186.327 180.327 183.941L122.283 147.008V215.495C122.283 219.939 120.518 224.201 117.374 227.344C114.231 230.487 109.968 232.252 105.522 232.252C101.077 232.252 96.8139 230.487 93.6706 227.344C90.5273 224.201 88.7614 219.939 88.7614 215.495V147.008L30.7179 183.941C28.8602 185.122 26.7879 185.927 24.6192 186.308C22.4506 186.689 20.2281 186.639 18.0787 186.161C13.7378 185.197 9.95808 182.547 7.57095 178.796C6.38896 176.939 5.58445 174.867 5.20336 172.699C4.82227 170.531 4.87205 168.309 5.34987 166.16C6.31486 161.82 8.96475 158.041 12.7166 155.654L74.2966 116.476L12.7166 77.2971C10.8589 76.1154 9.25214 74.5794 7.98816 72.7769C6.72418 70.9744 5.82768 68.9406 5.34987 66.7916C4.87205 64.6427 4.82227 62.4208 5.20336 60.2526C5.58445 58.0844 6.38896 56.0126 7.57095 54.1553C8.75293 52.2979 10.2893 50.6916 12.0922 49.4279C13.8951 48.1642 15.9293 47.2679 18.0787 46.7902C20.2281 46.3125 22.4506 46.2627 24.6192 46.6437C26.7879 47.0247 28.8602 47.829 30.7179 49.0108L88.7614 85.9439V17.4567C88.7614 13.0124 90.5273 8.75009 93.6706 5.60748C96.8139 2.46487 101.077 0.682617 105.522 0.682617Z" fill="black"/>
<path d="M119.283 85.9439V91.4086L123.894 88.475L181.937 51.542C181.937 51.542 181.937 51.5419 181.938 51.5418C185.018 49.5824 188.751 48.9265 192.315 49.7187C195.88 50.5109 198.983 52.6862 200.943 55.7659C202.903 58.8456 203.559 62.5774 202.767 66.1405C201.974 69.7036 199.799 72.8063 196.718 74.7658L196.718 74.766L135.138 113.945L131.159 116.476L135.138 119.007L196.718 158.186L196.718 158.186C199.799 160.145 201.974 163.248 202.767 166.811C203.559 170.374 202.903 174.106 200.943 177.186C198.983 180.265 195.88 182.441 192.315 183.233C188.751 184.025 185.018 183.369 181.938 181.41C181.937 181.41 181.937 181.41 181.937 181.41L123.894 144.477L119.283 141.543V147.008V215.495C119.283 219.143 117.834 222.642 115.253 225.222C112.673 227.803 109.172 229.252 105.522 229.252C101.873 229.252 98.3724 227.803 95.7917 225.222C93.2111 222.642 91.7614 219.143 91.7614 215.495V147.008V141.543L87.1509 144.477L29.1078 181.41C27.5824 182.38 25.8808 183.04 24.1001 183.353C22.3194 183.666 20.4945 183.625 18.7296 183.233C15.1652 182.441 12.0618 180.265 10.1019 177.186C9.13145 175.661 8.47094 173.96 8.15807 172.18C7.84519 170.4 7.88606 168.575 8.27835 166.811C9.0706 163.248 11.2462 160.145 14.3268 158.186L14.327 158.186L75.907 119.007L79.8854 116.476L75.907 113.945L14.327 74.766L14.3268 74.7658C12.8014 73.7956 11.4822 72.5344 10.4444 71.0545L8.00351 72.7661L10.4444 71.0545C9.40666 69.5745 8.67064 67.9048 8.27835 66.1405C7.88606 64.3762 7.84519 62.552 8.15807 60.7719C8.47094 58.9919 9.13145 57.2909 10.1019 55.7659C11.0723 54.241 12.3337 52.9221 13.8141 51.8845C15.2944 50.8469 16.9647 50.111 18.7296 49.7187C20.4945 49.3265 22.3194 49.2856 24.1001 49.5984C25.8808 49.9113 27.5824 50.5717 29.1078 51.542L87.1509 88.475L91.7614 91.4086V85.9439V17.4567C91.7614 13.8083 93.2111 10.3091 95.7917 7.72904C98.3778 5.14352 101.88 3.68262 105.522 3.68262C109.172 3.68262 112.673 5.13221 115.253 7.71228C117.834 10.2923 119.283 13.7915 119.283 17.4399V85.9439Z" stroke="white" stroke-width="7"/>
</g>
<defs>
<filter id="filter0_d_93_1513" x="0.950317" y="0.682617" width="209.144" height="239.569" filterUnits="userSpaceOnUse" color-interpolation-filters="sRGB">
<feFlood flood-opacity="0" result="BackgroundImageFix"/>
<feColorMatrix in="SourceAlpha" type="matrix" values="0 0 0 0 0 0 0 0 0 0 0 0 0 0 0 0 0 0 127 0" result="hardAlpha"/>
<feOffset dy="4"/>
<feGaussianBlur stdDeviation="2"/>
<feComposite in2="hardAlpha" operator="out"/>
<feColorMatrix type="matrix" values="0 0 0 0 0 0 0 0 0 0 0 0 0 0 0 0 0 0 0.25 0"/>
<feBlend mode="normal" in2="BackgroundImageFix" result="effect1_dropShadow_93_1513"/>
<feBlend mode="normal" in="SourceGraphic" in2="effect1_dropShadow_93_1513" result="shape"/>
</filter>
</defs>
</svg>
