<svg width="200" height="200" viewBox="0 0 721 794" fill="none" xmlns="http://www.w3.org/2000/svg">
<g filter="url(#filter0_f_87_1376)">
<path d="M312.097 345.072C382.533 345.072 439.633 287.972 439.633 217.536C439.633 147.1 382.533 90 312.097 90C241.661 90 184.561 147.1 184.561 217.536C184.561 287.972 241.661 345.072 312.097 345.072Z" fill="black"/>
<path d="M502.831 452.248C432.395 452.248 375.295 395.148 375.295 324.712C375.295 254.276 432.395 197.176 502.831 197.176C573.267 197.176 630.367 254.276 630.367 324.712C630.367 395.148 573.267 452.248 502.831 452.248Z" fill="black"/>
<path d="M460.354 494.725C389.917 494.725 332.818 437.625 332.818 367.189C332.818 296.753 389.917 239.653 460.354 239.653C530.79 239.653 587.89 296.753 587.89 367.189C587.89 437.625 530.79 494.725 460.354 494.725Z" fill="black"/>
<path d="M276.753 703.086C366.08 703.086 438.495 630.672 438.495 541.344C438.495 452.016 366.08 379.602 276.753 379.602C187.425 379.602 115.011 452.016 115.011 541.344C115.011 630.672 187.425 703.086 276.753 703.086Z" fill="black"/>
<path d="M326.921 628.975C416.248 628.975 488.663 556.561 488.663 467.233C488.663 377.905 416.248 305.491 326.921 305.491C237.593 305.491 165.179 377.905 165.179 467.233C165.179 556.561 237.593 628.975 326.921 628.975Z" fill="black"/>
<path d="M266.628 213.218C321.104 225.329 355.447 279.309 343.336 333.784C331.224 388.26 277.245 422.603 222.77 410.492C168.294 398.38 133.951 344.401 146.062 289.925C158.174 235.45 212.153 201.107 266.628 213.218Z" fill="black"/>
<path d="M260.44 230.852C159.681 238.188 83.6531 321.783 90.6266 417.567C97.6 513.352 184.934 585.054 285.693 577.718C386.452 570.382 462.48 486.787 455.507 391.003C448.533 295.218 361.199 223.516 260.44 230.852Z" fill="black"/>
<path d="M556.028 413.289C592.335 473.283 575.533 549.897 518.5 584.411C461.468 618.926 385.801 598.27 349.495 538.276C313.188 478.282 329.99 401.668 387.022 367.153C444.055 332.639 519.721 353.294 556.028 413.289Z" fill="black"/>
<path d="M353.876 503.88C441.089 503.88 511.789 433.18 511.789 345.967C511.789 258.754 441.089 188.054 353.876 188.054C266.663 188.054 195.963 258.754 195.963 345.967C195.963 433.18 266.663 503.88 353.876 503.88Z" fill="black"/>
<path d="M195.393 576.851C244.194 576.851 283.756 537.29 283.756 488.488C283.756 439.687 244.194 400.125 195.393 400.125C146.591 400.125 107.03 439.687 107.03 488.488C107.03 537.29 146.591 576.851 195.393 576.851Z" fill="black"/>
</g>
<defs>
<filter id="filter0_f_87_1376" x="0.182861" y="0" width="720.184" height="793.086" filterUnits="userSpaceOnUse" color-interpolation-filters="sRGB">
<feFlood flood-opacity="0" result="BackgroundImageFix"/>
<feBlend mode="normal" in="SourceGraphic" in2="BackgroundImageFix" result="shape"/>
<feGaussianBlur stdDeviation="45" result="effect1_foregroundBlur_87_1376"/>
</filter>
</defs>
</svg>
