<svg width="200" height="200" viewBox="0 0 800 800" fill="none" xmlns="http://www.w3.org/2000/svg">
<mask id="mask0_87_1388" style="mask-type:luminance" maskUnits="userSpaceOnUse" x="0" y="0" width="800" height="800">
<path d="M800 0H0V800H800V0Z" fill="white"/>
</mask>
<g mask="url(#mask0_87_1388)">
<g filter="url(#filter0_f_87_1388)">
<path d="M407.945 549.497C348.827 588.958 268.913 573.025 229.452 513.907C189.99 454.79 205.924 374.876 265.041 335.414C324.158 295.953 404.072 311.887 443.534 371.004C482.996 430.121 467.062 510.035 407.945 549.497Z" fill="black"/>
<path d="M563.313 437.924C519.525 376.064 433.879 361.413 372.018 405.202C310.157 448.99 295.507 534.636 339.295 596.497C383.084 658.358 468.73 673.008 530.591 629.22C592.452 585.431 607.102 499.785 563.313 437.924Z" fill="black"/>
<path d="M217.239 286.258C239.307 343.152 303.318 371.384 360.212 349.316C417.105 327.248 445.337 263.237 423.27 206.344C401.202 149.45 337.191 121.218 280.297 143.286C223.404 165.353 195.172 229.364 217.239 286.258Z" fill="black"/>
<path d="M348.407 239.554C373.186 175.669 445.062 143.968 508.947 168.747C572.832 193.526 604.533 265.403 579.753 329.287C554.974 393.172 483.098 424.873 419.213 400.094C355.329 375.314 323.627 303.438 348.407 239.554Z" fill="black"/>
<path d="M332.834 465.642C414.67 508.879 516.061 477.588 559.299 395.752C602.536 313.916 571.245 212.525 489.409 169.288C407.573 126.051 306.181 157.341 262.944 239.177C219.707 321.013 250.998 422.405 332.834 465.642Z" fill="black"/>
</g>
</g>
<defs>
<filter id="filter0_f_87_1388" x="117.781" y="45.778" width="560.765" height="698.675" filterUnits="userSpaceOnUse" color-interpolation-filters="sRGB">
<feFlood flood-opacity="0" result="BackgroundImageFix"/>
<feBlend mode="normal" in="SourceGraphic" in2="BackgroundImageFix" result="shape"/>
<feGaussianBlur stdDeviation="45" result="effect1_foregroundBlur_87_1388"/>
</filter>
</defs>
</svg>
