<svg width="200" height="200" viewBox="0 0 800 800" fill="none" xmlns="http://www.w3.org/2000/svg">
<g clip-path="url(#clip0_87_1387)">
<mask id="mask0_87_1387" style="mask-type:luminance" maskUnits="userSpaceOnUse" x="0" y="0" width="800" height="800">
<path d="M800 0H0V800H800V0Z" fill="white"/>
</mask>
<g mask="url(#mask0_87_1387)">
<g filter="url(#filter0_f_87_1387)">
<path d="M425.963 551.131C366.846 590.593 286.932 574.659 247.47 515.542C208.009 456.424 223.943 376.51 283.06 337.049C342.177 297.587 422.091 313.521 461.553 372.638C501.014 431.755 485.08 511.669 425.963 551.131Z" fill="black"/>
<path d="M581.332 439.559C537.543 377.698 451.898 363.047 390.037 406.836C328.176 450.625 313.525 536.27 357.314 598.131C401.103 659.992 486.748 674.643 548.609 630.854C610.47 587.065 625.121 501.42 581.332 439.559Z" fill="black"/>
<path d="M235.258 287.892C257.326 344.786 321.336 373.018 378.23 350.95C435.124 328.882 463.356 264.872 441.288 207.978C419.22 151.084 355.21 122.852 298.316 144.92C241.422 166.988 213.19 230.998 235.258 287.892Z" fill="black"/>
<path d="M366.425 241.188C391.205 177.303 463.081 145.602 526.966 170.381C590.85 195.161 622.551 267.037 597.772 330.922C572.993 394.806 501.116 426.507 437.232 401.728C373.347 376.949 341.646 305.072 366.425 241.188Z" fill="black"/>
<path d="M350.852 467.276C432.688 510.513 534.08 479.223 577.317 397.387C620.554 315.551 589.264 214.159 507.428 170.922C425.592 127.685 324.2 158.975 280.963 240.811C237.726 322.647 269.016 424.039 350.852 467.276Z" fill="black"/>
</g>
</g>
</g>
<defs>
<filter id="filter0_f_87_1387" x="135.8" y="47.4122" width="560.765" height="698.675" filterUnits="userSpaceOnUse" color-interpolation-filters="sRGB">
<feFlood flood-opacity="0" result="BackgroundImageFix"/>
<feBlend mode="normal" in="SourceGraphic" in2="BackgroundImageFix" result="shape"/>
<feGaussianBlur stdDeviation="45" result="effect1_foregroundBlur_87_1387"/>
</filter>
<clipPath id="clip0_87_1387">
<rect width="800" height="800" fill="white"/>
</clipPath>
</defs>
</svg>
