<svg width="150" height="150" viewBox="0 0 800 800" xmlns="http://www.w3.org/2000/svg">
<mask id="mask0_130_82" style="mask-type:luminance" maskUnits="userSpaceOnUse" x="0" y="0" width="800" height="800">
<path d="M800 0H0V800H800V0Z" fill="white"/>
</mask>
<g mask="url(#mask0_130_82)">
<g filter="url(#filter0_f_130_82)">
<path d="M394.862 433.716C473.208 433.716 536.72 370.204 536.72 291.858C536.72 213.512 473.208 150 394.862 150C316.516 150 253.004 213.512 253.004 291.858C253.004 370.204 316.516 433.716 394.862 433.716Z" fill="blue"/>
<path d="M527.886 229.797C438.492 205.844 346.607 258.894 322.654 348.287C298.701 437.681 351.751 529.566 441.145 553.519C530.538 577.472 622.424 524.422 646.376 435.029C670.329 345.635 617.279 253.75 527.886 229.797Z" fill="red"/>
<path d="M316.877 270.219C418.629 276.47 496.047 364.024 489.796 465.776C483.545 567.528 395.991 644.947 294.239 638.696C192.486 632.445 115.068 544.891 121.319 443.138C127.57 341.386 215.124 263.967 316.877 270.219Z" fill="orange"/>
<path d="M516.841 332.454C587.544 348.174 632.117 418.233 616.398 488.936C600.679 559.639 530.62 604.212 459.917 588.493C389.214 572.774 344.64 502.715 360.359 432.012C376.079 361.309 446.138 316.735 516.841 332.454Z" fill="green"/>
<path d="M460.711 555.92C545.983 555.92 615.111 486.793 615.111 401.52C615.111 316.247 545.983 247.12 460.711 247.12C375.438 247.12 306.311 316.247 306.311 401.52C306.311 486.793 375.438 555.92 460.711 555.92Z" fill="black"/>
</g>
</g>
<defs>
<filter id="filter0_f_130_82" x="20.9653" y="50" width="731.163" height="689.049" filterUnits="userSpaceOnUse" color-interpolation-filters="sRGB">
<feFlood flood-opacity="0" result="BackgroundImageFix"/>
<feBlend mode="normal" in="SourceGraphic" in2="BackgroundImageFix" result="shape"/>
<feGaussianBlur stdDeviation="50" result="effect1_foregroundBlur_130_82"/>
</filter>
</defs>
</svg>
