<svg width="200" height="200" viewBox="0 0 866 867" fill = "blue" xmlns="http://www.w3.org/2000/svg">
<g filter="url(#filter0_f_87_1243)">
<path class = "blob1bola1" d="M399.118 355.072C469.554 355.072 526.654 297.972 526.654 227.536C526.654 157.1 469.554 100 399.118 100C328.682 100 271.582 157.1 271.582 227.536C271.582 297.972 328.682 355.072 399.118 355.072Z"/>
<path class = "blob1bola2" d="M589.852 462.248C519.416 462.248 462.316 405.148 462.316 334.712C462.316 264.276 519.416 207.176 589.852 207.176C660.288 207.176 717.388 264.276 717.388 334.712C717.388 405.148 660.288 462.248 589.852 462.248Z"/>
<path class = "blob1bola3" d="M547.375 504.725C476.939 504.725 419.839 447.625 419.839 377.189C419.839 306.753 476.939 249.653 547.375 249.653C617.811 249.653 674.911 306.753 674.911 377.189C674.911 447.625 617.811 504.725 547.375 504.725Z"/>
<path class = "blob1bola4" d="M363.774 713.086C453.102 713.086 525.516 640.672 525.516 551.344C525.516 462.016 453.102 389.602 363.774 389.602C274.446 389.602 202.032 462.016 202.032 551.344C202.032 640.672 274.446 713.086 363.774 713.086Z"/>
<path class = "blob1bola5" d="M413.942 638.975C503.27 638.975 575.684 566.561 575.684 477.233C575.684 387.905 503.27 315.491 413.942 315.491C324.614 315.491 252.2 387.905 252.2 477.233C252.2 566.561 324.614 638.975 413.942 638.975Z"/>
<path class = "blob1bola6" d="M353.65 223.218C408.125 235.329 442.468 289.309 430.357 343.784C418.246 398.26 364.266 432.603 309.791 420.492C255.315 408.38 220.972 354.401 233.083 299.925C245.195 245.45 299.174 211.107 353.65 223.218Z"/>
<path class = "blob1bola7" d="M347.461 240.852C246.703 248.188 170.674 331.783 177.648 427.567C184.621 523.352 271.956 595.054 372.715 587.718C473.473 580.382 549.502 496.787 542.528 401.003C535.555 305.218 448.22 233.516 347.461 240.852Z"/>
<path class = "blob1bola8" d="M643.049 423.289C679.356 483.283 662.554 559.897 605.522 594.411C548.489 628.926 472.823 608.27 436.516 548.276C400.209 488.282 417.011 411.668 474.044 377.153C531.076 342.639 606.743 363.294 643.049 423.289Z"/>
<path class = "blob1bola9" d="M440.897 513.88C528.11 513.88 598.81 443.18 598.81 355.967C598.81 268.754 528.11 198.054 440.897 198.054C353.684 198.054 282.984 268.754 282.984 355.967C282.984 443.18 353.684 513.88 440.897 513.88Z"/>
<path class = "blob1bola10" d="M282.414 586.851C331.215 586.851 370.777 547.29 370.777 498.488C370.777 449.687 331.215 410.125 282.414 410.125C233.613 410.125 194.051 449.687 194.051 498.488C194.051 547.29 233.613 586.851 282.414 586.851Z"/>
</g>
<defs>
<filter id="filter0_f_87_1243" x="77.204" y="0" width="740.184" height="813.086" filterUnits="userSpaceOnUse" color-interpolation-filters="sRGB">
<feFlood flood-opacity="0" result="BackgroundImageFix"/>
<feBlend mode="normal" in="SourceGraphic" in2="BackgroundImageFix" result="shape"/>
<feGaussianBlur stdDeviation="50" result="effect1_foregroundBlur_87_1243"/>
</filter>
</defs>
</svg>
