<svg width="200" height="200" viewBox="0 0 933 884" xmlns="http://www.w3.org/2000/svg">
<g style="mix-blend-mode:darken">
<g opacity="0.7" filter="url(#filter0_f_130_13)">
<mask id="mask0_130_13" style="mask-type:luminance" maskUnits="userSpaceOnUse" x="100" y="159" width="522" height="525">
<path d="M621.441 683.259H100.551V159.426H621.441V683.259Z" fill="white"/>
</mask>
<g mask="url(#mask0_130_13)">
<path d="M289.373 303.482C393.657 303.482 478.195 388.498 478.195 493.371C478.195 598.243 393.657 683.259 289.373 683.259C185.09 683.259 100.551 598.243 100.551 493.371C100.551 388.498 185.09 303.482 289.373 303.482Z" fill="red"/>
</g>
</g>
<g opacity="0.7" filter="url(#filter1_f_130_13)">
<mask id="mask1_130_13" style="mask-type:luminance" maskUnits="userSpaceOnUse" x="278" y="183" width="574" height="577">
<path d="M796.518 759.39L851.146 238.446L333.129 183.509L278.5 704.453L796.518 759.39Z" fill="white"/>
</mask>
<g mask="url(#mask1_130_13)">
<path d="M455.782 387.459C444.845 491.754 520.051 585.217 623.76 596.215C727.468 607.214 820.406 531.583 831.343 427.289C842.28 322.994 767.074 229.531 663.365 218.532C559.657 207.534 466.719 283.165 455.782 387.459Z" fill="blue"/>
</g>
</g>
<g opacity="0.7" filter="url(#filter2_f_130_13)">
<mask id="mask2_130_13" style="mask-type:luminance" maskUnits="userSpaceOnUse" x="16" y="95" width="582" height="579">
<path d="M597.58 551.51L474.889 95L16.9999 217.322L139.691 673.832L597.58 551.51Z" fill="white"/>
</mask>
<g mask="url(#mask2_130_13)">
<path d="M187.396 349.168C211.959 440.562 306.185 494.8 397.856 470.311C489.526 445.822 543.928 351.879 519.365 260.485C494.801 169.09 400.575 114.852 308.905 139.342C217.234 163.831 162.833 257.773 187.396 349.168Z" fill="orange"/>
</g>
</g>
<g opacity="0.7" filter="url(#filter3_f_130_13)">
<mask id="mask3_130_13" style="mask-type:luminance" maskUnits="userSpaceOnUse" x="257" y="0" width="577" height="580">
<path d="M833.552 122.406L711.834 579.234L257.573 456.827L379.292 2.13191e-05L833.552 122.406Z" fill="white"/>
</mask>
<g mask="url(#mask3_130_13)">
<path d="M426.616 324.888C450.985 233.43 544.465 179.154 635.41 203.66C726.354 228.167 780.325 322.175 755.957 413.633C731.588 505.092 638.108 559.368 547.163 534.861C456.218 510.355 402.248 416.347 426.616 324.888Z" fill="green"/>
</g>
</g>
<g opacity="0.7" filter="url(#filter4_f_130_13)">
<mask id="mask4_130_13" style="mask-type:luminance" maskUnits="userSpaceOnUse" x="307" y="290" width="526" height="529">
<path d="M832.977 401.701L721.908 818.556L307.396 706.86L418.464 290.005L832.977 401.701Z" fill="white"/>
</mask>
<g mask="url(#mask4_130_13)">
<path d="M461.649 586.466C483.885 503.01 569.186 453.483 652.173 475.845C735.16 498.207 784.408 583.989 762.172 667.445C739.935 750.901 654.635 800.428 571.648 778.066C488.661 755.704 439.413 669.921 461.649 586.466Z" fill="black"/>
</g>
</g>
<g opacity="0.7" filter="url(#filter5_f_130_13)">
<mask id="mask5_130_13" style="mask-type:luminance" maskUnits="userSpaceOnUse" x="292" y="141" width="560" height="556">
<path d="M540.782 696.406L292.42 388.366L602.638 141.747L851 449.788L540.782 696.406Z" fill="white"/>
</mask>
<g mask="url(#mask5_130_13)">
<path d="M607.36 321.232C657.082 382.903 647.043 472.922 584.937 522.296C522.83 571.67 432.174 561.701 382.451 500.03C332.728 438.36 342.767 348.34 404.874 298.966C466.981 249.592 557.637 259.561 607.36 321.232Z" fill="purple"/>
</g>
</g>
<g opacity="0.7" filter="url(#filter6_f_130_13)">
<mask id="mask6_130_13" style="mask-type:luminance" maskUnits="userSpaceOnUse" x="233" y="209" width="359" height="428">
<path d="M591.548 209.47H233.69V636.286H591.548V209.47Z" fill="white"/>
</mask>
<g mask="url(#mask6_130_13)">
<path d="M363.414 518.913C435.058 518.913 493.137 449.642 493.137 364.192C493.137 278.742 435.058 209.471 363.414 209.471C291.77 209.471 233.69 278.742 233.69 364.192C233.69 449.642 291.77 518.913 363.414 518.913Z" fill="#020202"/>
</g>
</g>
<g opacity="0.7" filter="url(#filter7_f_130_13)">
<mask id="mask7_130_13" style="mask-type:luminance" maskUnits="userSpaceOnUse" x="396" y="418" width="291" height="337">
<path d="M686.104 754.542L677.205 454.335L396.999 418.638L405.897 718.845L686.104 754.542Z" fill="white"/>
</mask>
<g mask="url(#mask7_130_13)">
<path d="M477.283 537.282C479.064 597.385 525.985 651.901 582.083 659.047C638.181 666.194 682.213 623.265 680.432 563.163C678.65 503.061 631.73 448.544 575.632 441.398C519.533 434.251 475.501 477.18 477.283 537.282Z" fill="red"/>
</g>
</g>
<g opacity="0.7" filter="url(#filter8_f_130_13)">
<mask id="mask8_130_13" style="mask-type:luminance" maskUnits="userSpaceOnUse" x="117" y="232" width="375" height="378">
<path d="M491.734 440.972L287.509 609.73L117.015 401.065L321.24 232.307L491.734 440.972Z" fill="white"/>
</mask>
<g mask="url(#mask8_130_13)">
<path d="M237.931 397.274C278.817 363.488 339.633 369.965 373.766 411.74C407.9 453.515 402.426 514.77 361.539 548.556C320.653 582.341 259.837 575.865 225.704 534.089C191.57 492.314 197.045 431.06 237.931 397.274Z" fill="blue"/>
</g>
</g>
</g>
<defs>
<filter id="filter0_f_130_13" x="0.300072" y="203.231" width="578.146" height="580.28" filterUnits="userSpaceOnUse" color-interpolation-filters="sRGB">
<feFlood flood-opacity="0" result="BackgroundImageFix"/>
<feBlend mode="normal" in="SourceGraphic" in2="BackgroundImageFix" result="shape"/>
<feGaussianBlur stdDeviation="50.1256" result="effect1_foregroundBlur_130_13"/>
</filter>
<filter id="filter1_f_130_13" x="354.474" y="117.219" width="578.177" height="580.311" filterUnits="userSpaceOnUse" color-interpolation-filters="sRGB">
<feFlood flood-opacity="0" result="BackgroundImageFix"/>
<feBlend mode="normal" in="SourceGraphic" in2="BackgroundImageFix" result="shape"/>
<feGaussianBlur stdDeviation="50.1256" result="effect1_foregroundBlur_130_13"/>
</filter>
<filter id="filter2_f_130_13" x="81.2467" y="33.2102" width="544.267" height="543.232" filterUnits="userSpaceOnUse" color-interpolation-filters="sRGB">
<feFlood flood-opacity="0" result="BackgroundImageFix"/>
<feBlend mode="normal" in="SourceGraphic" in2="BackgroundImageFix" result="shape"/>
<feGaussianBlur stdDeviation="50.1256" result="effect1_foregroundBlur_130_13"/>
</filter>
<filter id="filter3_f_130_13" x="320.514" y="97.5249" width="541.545" height="543.472" filterUnits="userSpaceOnUse" color-interpolation-filters="sRGB">
<feFlood flood-opacity="0" result="BackgroundImageFix"/>
<feBlend mode="normal" in="SourceGraphic" in2="BackgroundImageFix" result="shape"/>
<feGaussianBlur stdDeviation="50.1256" result="effect1_foregroundBlur_130_13"/>
</filter>
<filter id="filter4_f_130_13" x="356.058" y="370.225" width="511.704" height="513.462" filterUnits="userSpaceOnUse" color-interpolation-filters="sRGB">
<feFlood flood-opacity="0" result="BackgroundImageFix"/>
<feBlend mode="normal" in="SourceGraphic" in2="BackgroundImageFix" result="shape"/>
<feGaussianBlur stdDeviation="50.1256" result="effect1_foregroundBlur_130_13"/>
</filter>
<filter id="filter5_f_130_13" x="250.595" y="167.332" width="488.621" height="486.599" filterUnits="userSpaceOnUse" color-interpolation-filters="sRGB">
<feFlood flood-opacity="0" result="BackgroundImageFix"/>
<feBlend mode="normal" in="SourceGraphic" in2="BackgroundImageFix" result="shape"/>
<feGaussianBlur stdDeviation="50.1256" result="effect1_foregroundBlur_130_13"/>
</filter>
<filter id="filter6_f_130_13" x="198.69" y="174.471" width="329.447" height="379.441" filterUnits="userSpaceOnUse" color-interpolation-filters="sRGB">
<feFlood flood-opacity="0" result="BackgroundImageFix"/>
<feBlend mode="normal" in="SourceGraphic" in2="BackgroundImageFix" result="shape"/>
<feGaussianBlur stdDeviation="17.5" result="effect1_foregroundBlur_130_13"/>
</filter>
<filter id="filter7_f_130_13" x="442.23" y="405.62" width="273.254" height="289.204" filterUnits="userSpaceOnUse" color-interpolation-filters="sRGB">
<feFlood flood-opacity="0" result="BackgroundImageFix"/>
<feBlend mode="normal" in="SourceGraphic" in2="BackgroundImageFix" result="shape"/>
<feGaussianBlur stdDeviation="17.5" result="effect1_foregroundBlur_130_13"/>
</filter>
<filter id="filter8_f_130_13" x="168.294" y="340.629" width="262.882" height="264.571" filterUnits="userSpaceOnUse" color-interpolation-filters="sRGB">
<feFlood flood-opacity="0" result="BackgroundImageFix"/>
<feBlend mode="normal" in="SourceGraphic" in2="BackgroundImageFix" result="shape"/>
<feGaussianBlur stdDeviation="17.5" result="effect1_foregroundBlur_130_13"/>
</filter>
</defs>
</svg>
