<svg width="200" height="200" viewBox="0 0 673 675" xmlns="http://www.w3.org/2000/svg">
<g filter="url(#filter0_f_87_1455)">
<path d="M261.238 517.05C355.731 517.05 432.333 440.443 432.333 345.943C432.333 251.442 355.731 174.835 261.238 174.835C166.746 174.835 90.144 251.442 90.144 345.943C90.144 440.443 166.746 517.05 261.238 517.05Z" fill="red"/>
<path d="M287.798 471.286C273.386 395.468 323.161 322.322 398.973 307.909C474.785 293.497 547.925 343.276 562.336 419.093C576.748 494.911 526.973 568.057 451.161 582.469C375.35 596.882 302.209 547.103 287.798 471.286Z" fill="orange"/>
<path d="M213.029 110.148C305.828 63.6743 418.729 101.235 465.199 194.042C511.668 286.849 474.111 399.758 381.311 446.231C288.511 492.705 175.611 455.144 129.141 362.338C82.6713 269.531 120.229 156.621 213.029 110.148Z" fill="red"/>
<path d="M362.307 269.728C356.242 330.404 400.509 384.509 461.18 390.575C521.852 396.64 575.952 352.37 582.018 291.694C588.083 231.018 543.816 176.913 483.145 170.847C422.473 164.781 368.373 209.052 362.307 269.728Z" fill="orange"/>
</g>
<defs>
<filter id="filter0_f_87_1455" x="0.144043" y="0.215332" width="672.429" height="674.738" filterUnits="userSpaceOnUse" color-interpolation-filters="sRGB">
<feFlood flood-opacity="0" result="BackgroundImageFix"/>
<feBlend mode="normal" in="SourceGraphic" in2="BackgroundImageFix" result="shape"/>
<feGaussianBlur stdDeviation="45" result="effect1_foregroundBlur_87_1455"/>
</filter>
</defs>
</svg>
