<svg width="68" height="68" viewBox="0 0 68 68" fill="none" xmlns="http://www.w3.org/2000/svg">
<path d="M46.9546 31.6686L44.4797 34.1435L46.9546 36.6184L62.2404 51.9043C63.6111 53.2749 64.3811 55.1339 64.3811 57.0723C64.3811 59.0107 63.6111 60.8698 62.2404 62.2404C60.8698 63.6111 59.0108 64.3811 57.0724 64.3811C55.1433 64.3811 53.2928 63.6184 51.9241 62.2601L36.9333 46.7275L34.4592 44.164L31.94 46.6832L16.3828 62.2404C15.0121 63.6111 13.1531 64.3811 11.2147 64.3811C9.27633 64.3811 7.41732 63.6111 6.04667 62.2404C4.67601 60.8698 3.90599 59.0107 3.90599 57.0723C3.90599 55.1431 4.66876 53.2925 6.02729 51.9237L21.8317 36.6612L24.4387 34.1435L21.8317 31.6259L6.02729 16.3633C4.66876 14.9946 3.90598 13.1439 3.90598 11.2147C3.90598 9.2763 4.67601 7.41729 6.04667 6.04664C7.41732 4.67598 9.27633 3.90595 11.2147 3.90595C13.1531 3.90595 15.0121 4.67598 16.3828 6.04664L31.94 21.6038L34.4592 24.123L36.9333 21.5595L51.9241 6.02691C53.2928 4.66859 55.1433 3.90595 57.0724 3.90595C59.0108 3.90595 60.8698 4.67598 62.2404 6.04664C63.6111 7.41729 64.3811 9.2763 64.3811 11.2147C64.3811 13.1531 63.6111 15.0121 62.2404 16.3828L46.9546 31.6686Z" stroke="white" stroke-width="3"/>
</svg>
