<svg width="160" height="170" viewBox="0 0 160 170" fill="none" xmlns="http://www.w3.org/2000/svg">
<path d="M82.9766 3.67625H86.4365C75.1264 14.457 67.8566 28.9626 65.8907 44.6714C63.9247 60.3803 67.3871 76.2993 75.6758 89.6611C83.9645 103.023 96.5555 112.983 111.26 117.809C125.965 122.636 141.853 122.024 156.164 116.08C150.659 129.668 141.662 141.468 130.132 150.221C118.603 158.974 104.973 164.353 90.6968 165.783C76.4209 167.213 62.0343 164.641 49.0716 158.341C36.1089 152.042 25.0564 142.25 17.093 130.012C9.1296 117.774 4.55407 103.547 3.85445 88.8505C3.15484 74.1537 6.35739 59.5377 13.1205 46.5616C19.8836 33.5856 29.9536 22.7362 42.2562 15.1707C54.5589 7.60527 68.6328 3.60755 82.9766 3.604V3.67625Z" fill="black" stroke="white" stroke-width="7" stroke-linecap="round" stroke-linejoin="round"/>
</svg>
