<svg width="1635" height="1635" viewBox="0 0 1635 1635" fill="none" xmlns="http://www.w3.org/2000/svg">
<path d="M817.5 0C1269.01 0 1635 365.995 1635 817.5C1635.1 940.238 1607.52 1061.42 1554.3 1172.02C1501.08 1282.62 1423.6 1379.79 1327.62 1456.29L1308.08 1471.5H1471.5C1492.34 1471.52 1512.38 1479.5 1527.53 1493.81C1542.68 1508.11 1551.8 1527.66 1553.02 1548.46C1554.24 1569.26 1547.47 1589.74 1534.1 1605.72C1520.73 1621.7 1501.76 1631.97 1481.06 1634.43L1471.5 1635H817.5C365.995 1635 0 1269.01 0 817.5C0 365.995 365.995 0 817.5 0ZM817.5 163.5C644.048 163.5 477.701 232.403 355.052 355.052C232.403 477.701 163.5 644.048 163.5 817.5C163.5 990.952 232.403 1157.3 355.052 1279.95C477.701 1402.6 644.048 1471.5 817.5 1471.5C990.952 1471.5 1157.3 1402.6 1279.95 1279.95C1402.6 1157.3 1471.5 990.952 1471.5 817.5C1471.5 644.048 1402.6 477.701 1279.95 355.052C1157.3 232.403 990.952 163.5 817.5 163.5ZM817.5 981C860.863 981 902.45 998.226 933.112 1028.89C963.774 1059.55 981 1101.14 981 1144.5C981 1187.86 963.774 1229.45 933.112 1260.11C902.45 1290.77 860.863 1308 817.5 1308C774.137 1308 732.55 1290.77 701.888 1260.11C671.226 1229.45 654 1187.86 654 1144.5C654 1101.14 671.226 1059.55 701.888 1028.89C732.55 998.226 774.137 981 817.5 981ZM490.5 654C533.863 654 575.45 671.226 606.112 701.888C636.774 732.55 654 774.137 654 817.5C654 860.863 636.774 902.45 606.112 933.112C575.45 963.774 533.863 981 490.5 981C447.137 981 405.55 963.774 374.888 933.112C344.226 902.45 327 860.863 327 817.5C327 774.137 344.226 732.55 374.888 701.888C405.55 671.226 447.137 654 490.5 654ZM1144.5 654C1187.86 654 1229.45 671.226 1260.11 701.888C1290.77 732.55 1308 774.137 1308 817.5C1308 860.863 1290.77 902.45 1260.11 933.112C1229.45 963.774 1187.86 981 1144.5 981C1101.14 981 1059.55 963.774 1028.89 933.112C998.226 902.45 981 860.863 981 817.5C981 774.137 998.226 732.55 1028.89 701.888C1059.55 671.226 1101.14 654 1144.5 654ZM817.5 327C860.863 327 902.45 344.226 933.112 374.888C963.774 405.55 981 447.137 981 490.5C981 533.863 963.774 575.45 933.112 606.112C902.45 636.774 860.863 654 817.5 654C774.137 654 732.55 636.774 701.888 606.112C671.226 575.45 654 533.863 654 490.5C654 447.137 671.226 405.55 701.888 374.888C732.55 344.226 774.137 327 817.5 327Z" fill="black"/>
</svg>
