<svg width="87" height="87" viewBox="0 0 87 87" fill="none" xmlns="http://www.w3.org/2000/svg">
<path d="M50.5438 32.4263V35.9263H54.0438H75.6613C77.5996 35.9263 79.4587 36.6963 80.8293 38.0669C82.2 39.4376 82.97 41.2966 82.97 43.235C82.97 45.1734 82.2 47.0324 80.8293 48.4031C79.4652 49.7671 77.6175 50.5363 75.6892 50.5437L54.1059 50.1606L50.5438 50.0974V53.66V75.6613C50.5438 77.5996 49.7737 79.4587 48.4031 80.8293C47.0324 82.2 45.1734 82.97 43.235 82.97C41.2966 82.97 39.4376 82.2 38.0669 80.8293C36.7028 79.4651 35.9335 77.6172 35.9263 75.6887L36.3094 53.7211L36.3726 50.0974L32.7489 50.1606L10.7813 50.5437C8.8528 50.5365 7.00487 49.7673 5.64068 48.4031C4.27003 47.0324 3.5 45.1734 3.5 43.235C3.5 41.2966 4.27003 39.4376 5.64068 38.0669C7.01134 36.6963 8.87035 35.9263 10.8088 35.9263H32.81H36.3726L36.3094 32.3641L35.9263 10.7808C35.9337 8.85249 36.7029 7.00475 38.0669 5.64068C39.4376 4.27003 41.2966 3.5 43.235 3.5C45.1734 3.5 47.0324 4.27003 48.4031 5.64068C49.7737 7.01134 50.5438 8.87035 50.5438 10.8088V32.4263Z" stroke="white" stroke-width="5"/>
</svg>
