<svg width="203" height="198" viewBox="0 0 203 198" fill="none" xmlns="http://www.w3.org/2000/svg">
<path d="M80.5329 37.019C89.4662 14.5967 93.9442 3.37988 101.627 3.37988C109.31 3.37988 113.788 14.5853 122.722 37.019L123.142 38.0481C128.188 50.7285 130.712 57.063 135.872 60.9163C141.009 64.7581 147.771 65.3755 161.285 66.5876L163.717 66.8048C185.834 68.7943 196.904 69.7891 199.257 76.8668C201.633 83.9559 193.415 91.4682 176.981 106.493L171.514 111.524C163.194 119.127 159.035 122.935 157.102 127.92C156.737 128.852 156.434 129.807 156.193 130.779C154.932 135.97 156.148 141.492 158.58 152.526L159.341 155.956C163.808 176.252 166.047 186.394 162.149 190.773C160.688 192.406 158.79 193.581 156.682 194.158C151.045 195.713 143.043 189.15 127.018 176.023C116.505 167.402 111.242 163.091 105.207 162.119C102.836 161.738 100.419 161.738 98.0471 162.119C92.0007 163.091 86.7498 167.402 76.2253 176.023C60.2227 189.15 52.21 195.713 46.5727 194.158C44.4691 193.579 42.5753 192.405 41.1172 190.773C37.2075 186.394 39.4465 176.252 43.9131 155.968L44.6746 152.526C47.1068 141.481 48.323 135.97 47.0614 130.767C46.8208 129.795 46.517 128.84 46.1521 127.909C44.22 122.935 40.0602 119.127 31.7407 111.512L26.2625 106.493C9.83929 91.4682 1.62201 83.9445 3.98604 76.8783C6.36144 69.7891 17.4201 68.7943 39.5374 66.8048L41.9696 66.5761C55.4946 65.3641 62.2457 64.7581 67.3943 60.9048C72.5429 57.063 75.066 50.7285 80.1237 38.0595L80.5329 37.019Z" stroke="white" stroke-width="7"/>
</svg>
